<?xml version="1.0" standalone="no"?>
<!DOCTYPE svg PUBLIC "-//W3C//DTD SVG 20010904//EN"
 "http://www.w3.org/TR/2001/REC-SVG-20010904/DTD/svg10.dtd">
<svg version="1.0" xmlns="http://www.w3.org/2000/svg"
 width="500.000000pt" height="250.000000pt" viewBox="0 0 385.000000 250.000000"
 preserveAspectRatio="xMidYMid meet">

<g transform="translate(0.000000,385.000000) scale(0.100000,-0.100000)"
fill="#000000" stroke="none">
<path d="M3222 3383 c-36 -29 -37 -70 -5 -133 l28 -55 58 -3 c71 -4 122 22
132 68 10 46 -24 90 -71 90 -10 0 -27 9 -39 20 -31 30 -76 35 -103 13z"/>
<path d="M3057 3373 c-4 -3 -7 -15 -7 -26 0 -10 -10 -27 -22 -36 -25 -21 -19
-51 11 -51 22 0 31 19 31 67 l0 36 21 -19 c15 -13 20 -14 17 -5 -5 19 -43 43
-51 34z"/>
<path d="M2966 3194 c-12 -12 -16 -37 -16 -110 l0 -94 -44 6 c-41 6 -48 4 -75
-24 -41 -41 -42 -83 -2 -123 31 -31 67 -37 104 -17 42 22 46 38 47 161 0 64 3
117 8 116 4 0 48 -15 97 -32 l90 -32 3 -66 3 -66 -51 5 c-67 6 -100 -21 -100
-83 0 -82 90 -120 148 -62 27 27 27 29 30 180 2 108 -1 159 -10 176 -10 18
-35 32 -98 53 -97 32 -113 34 -134 12z"/>
<path d="M3335 3058 c-2 -7 -6 -31 -7 -53 -3 -36 -6 -40 -31 -43 -61 -7 -60
-102 2 -102 40 0 51 18 58 99 6 73 14 86 33 51 12 -23 40 -27 40 -6 0 17 -56
66 -76 66 -8 0 -17 -6 -19 -12z"/>
<path d="M1280 2600 l0 -350 200 0 200 0 0 31 0 31 30 -25 c59 -50 233 -61
316 -21 22 10 50 37 64 58 l25 39 3 -57 3 -56 69 0 70 0 0 139 c0 125 2 141
21 165 27 34 77 36 107 3 20 -22 22 -33 22 -165 l0 -142 75 0 75 0 0 145 c0
132 2 147 20 165 28 28 75 26 105 -5 24 -23 25 -29 25 -165 l0 -140 70 0 70 0
0 45 c0 49 8 56 27 26 21 -34 98 -72 156 -78 68 -7 145 11 189 43 l33 25 3
-30 3 -31 75 0 74 0 0 137 c0 135 0 137 27 165 37 38 93 39 122 2 19 -24 21
-40 21 -165 l0 -139 75 0 75 0 0 148 c0 81 -4 163 -10 181 -29 102 -176 150
-269 88 -39 -26 -41 -26 -41 -7 0 18 -6 20 -75 20 l-75 0 0 -41 0 -42 -20 26
c-32 41 -103 69 -173 70 -76 1 -140 -26 -184 -76 l-31 -36 -12 30 c-16 38 -56
66 -112 78 -56 13 -99 2 -149 -38 l-37 -30 -18 20 c-57 63 -166 70 -234 17
l-25 -20 -3 21 c-3 20 -9 21 -143 21 l-139 0 -1 -72 c-1 -203 -16 -241 -91
-246 -40 -3 -49 1 -67 24 -19 24 -21 39 -21 160 l0 134 -76 0 -75 0 3 -145 3
-145 -107 0 -108 0 0 280 0 280 -80 0 -80 0 0 -350z m1845 -25 c40 -39 32 -45
-60 -45 -69 0 -85 3 -85 15 0 54 101 75 145 30z m135 -170 l0 -45 -40 20 -40
20 -30 -21 c-42 -32 -113 -31 -145 2 -12 13 -26 34 -30 47 l-6 22 145 0 146 0
0 -45z"/>
</g>
</svg>
